<mxfile host="app.diagrams.net" modified="2020-12-22T14:52:33.183Z" agent="5.0 (Macintosh; Intel Mac OS X 10_15_7) AppleWebKit/537.36 (KHTML, like Gecko) Chrome/87.0.4280.88 Safari/537.36" etag="wMX7G2ul_MFaMU1s_6TG" version="14.1.1" type="github">
  <diagram id="dvHxiIB0Y7OkVScomW_D" name="Page-1">
    <mxGraphModel dx="946" dy="614" grid="1" gridSize="10" guides="1" tooltips="1" connect="1" arrows="1" fold="1" page="1" pageScale="1" pageWidth="1600" pageHeight="900" math="0" shadow="0">
      <root>
        <mxCell id="0" />
        <mxCell id="1" parent="0" />
        <mxCell id="ZC2ZCOioa6piEP0aAPeQ-1" value="" style="shape=curlyBracket;whiteSpace=wrap;html=1;rounded=1;rotation=90;" vertex="1" parent="1">
          <mxGeometry x="373.75" y="-68.75" width="20" height="277.5" as="geometry" />
        </mxCell>
        <mxCell id="ZC2ZCOioa6piEP0aAPeQ-2" value="Index-A" style="text;html=1;strokeColor=none;fillColor=none;align=center;verticalAlign=middle;whiteSpace=wrap;rounded=0;" vertex="1" parent="1">
          <mxGeometry x="210" y="90" width="70" height="20" as="geometry" />
        </mxCell>
        <mxCell id="ZC2ZCOioa6piEP0aAPeQ-3" value="Recipient-P" style="text;html=1;strokeColor=none;fillColor=none;align=center;verticalAlign=middle;whiteSpace=wrap;rounded=0;" vertex="1" parent="1">
          <mxGeometry x="490" y="90" width="90" height="20" as="geometry" />
        </mxCell>
        <mxCell id="ZC2ZCOioa6piEP0aAPeQ-4" value="" style="shape=curlyBracket;whiteSpace=wrap;html=1;rounded=1;rotation=90;" vertex="1" parent="1">
          <mxGeometry x="240" y="60" width="20" height="120" as="geometry" />
        </mxCell>
        <mxCell id="ZC2ZCOioa6piEP0aAPeQ-5" value="Artist-A" style="text;html=1;strokeColor=none;fillColor=none;align=center;verticalAlign=middle;whiteSpace=wrap;rounded=0;" vertex="1" parent="1">
          <mxGeometry x="155" y="140" width="70" height="20" as="geometry" />
        </mxCell>
        <mxCell id="ZC2ZCOioa6piEP0aAPeQ-6" value="Index-P" style="text;html=1;strokeColor=none;fillColor=none;align=center;verticalAlign=middle;whiteSpace=wrap;rounded=0;" vertex="1" parent="1">
          <mxGeometry x="280" y="140" width="60" height="20" as="geometry" />
        </mxCell>
        <mxCell id="ZC2ZCOioa6piEP0aAPeQ-7" value="" style="shape=curlyBracket;whiteSpace=wrap;html=1;rounded=1;rotation=90;" vertex="1" parent="1">
          <mxGeometry x="155" y="110" width="20" height="120" as="geometry" />
        </mxCell>
        <mxCell id="ZC2ZCOioa6piEP0aAPeQ-8" value="Prototype-A" style="text;html=1;strokeColor=none;fillColor=none;align=center;verticalAlign=middle;whiteSpace=wrap;rounded=0;" vertex="1" parent="1">
          <mxGeometry x="47.5" y="188.75" width="72.5" height="20" as="geometry" />
        </mxCell>
        <mxCell id="ZC2ZCOioa6piEP0aAPeQ-9" value="Artist-P" style="text;html=1;strokeColor=none;fillColor=none;align=center;verticalAlign=middle;whiteSpace=wrap;rounded=0;" vertex="1" parent="1">
          <mxGeometry x="190" y="188.75" width="50" height="20" as="geometry" />
        </mxCell>
        <mxCell id="ZC2ZCOioa6piEP0aAPeQ-12" value="" style="endArrow=classic;html=1;" edge="1" parent="1">
          <mxGeometry width="50" height="50" relative="1" as="geometry">
            <mxPoint x="230" y="150" as="sourcePoint" />
            <mxPoint x="270" y="150" as="targetPoint" />
          </mxGeometry>
        </mxCell>
        <mxCell id="ZC2ZCOioa6piEP0aAPeQ-13" value="" style="endArrow=classic;html=1;" edge="1" parent="1">
          <mxGeometry width="50" height="50" relative="1" as="geometry">
            <mxPoint x="130" y="198.25" as="sourcePoint" />
            <mxPoint x="180" y="198.25" as="targetPoint" />
            <Array as="points">
              <mxPoint x="140" y="198.25" />
            </Array>
          </mxGeometry>
        </mxCell>
        <mxCell id="ZC2ZCOioa6piEP0aAPeQ-14" value="" style="endArrow=classic;html=1;" edge="1" parent="1">
          <mxGeometry width="50" height="50" relative="1" as="geometry">
            <mxPoint x="290" y="100" as="sourcePoint" />
            <mxPoint x="490" y="100" as="targetPoint" />
          </mxGeometry>
        </mxCell>
        <mxCell id="ZC2ZCOioa6piEP0aAPeQ-45" value="" style="shape=curlyBracket;whiteSpace=wrap;html=1;rounded=1;rotation=90;" vertex="1" parent="1">
          <mxGeometry x="397.5" y="163.75" width="20" height="310" as="geometry" />
        </mxCell>
        <mxCell id="ZC2ZCOioa6piEP0aAPeQ-46" value="Index&lt;sup&gt;2&lt;/sup&gt;-A (authenticated charter)" style="text;html=1;strokeColor=none;fillColor=none;align=center;verticalAlign=middle;whiteSpace=wrap;rounded=0;" vertex="1" parent="1">
          <mxGeometry x="120" y="338.75" width="190" height="20" as="geometry" />
        </mxCell>
        <mxCell id="ZC2ZCOioa6piEP0aAPeQ-47" value="Prototype-P (count)" style="text;html=1;strokeColor=none;fillColor=none;align=center;verticalAlign=middle;whiteSpace=wrap;rounded=0;" vertex="1" parent="1">
          <mxGeometry x="520" y="338.75" width="140" height="20" as="geometry" />
        </mxCell>
        <mxCell id="ZC2ZCOioa6piEP0aAPeQ-48" value="" style="shape=curlyBracket;whiteSpace=wrap;html=1;rounded=1;rotation=90;" vertex="1" parent="1">
          <mxGeometry x="240" y="308.75" width="20" height="120" as="geometry" />
        </mxCell>
        <mxCell id="ZC2ZCOioa6piEP0aAPeQ-49" value="Index-P (charter)" style="text;html=1;strokeColor=none;fillColor=none;align=center;verticalAlign=middle;whiteSpace=wrap;rounded=0;" vertex="1" parent="1">
          <mxGeometry x="280" y="388.75" width="100" height="20" as="geometry" />
        </mxCell>
        <mxCell id="ZC2ZCOioa6piEP0aAPeQ-50" value="" style="shape=curlyBracket;whiteSpace=wrap;html=1;rounded=1;rotation=90;" vertex="1" parent="1">
          <mxGeometry x="150" y="358.75" width="20" height="120" as="geometry" />
        </mxCell>
        <mxCell id="ZC2ZCOioa6piEP0aAPeQ-51" value="Index-P (wax)" style="text;html=1;strokeColor=none;fillColor=none;align=center;verticalAlign=middle;whiteSpace=wrap;rounded=0;" vertex="1" parent="1">
          <mxGeometry x="195" y="437.5" width="95" height="20" as="geometry" />
        </mxCell>
        <mxCell id="ZC2ZCOioa6piEP0aAPeQ-53" value="" style="endArrow=classic;html=1;" edge="1" parent="1">
          <mxGeometry width="50" height="50" relative="1" as="geometry">
            <mxPoint x="230" y="398.75" as="sourcePoint" />
            <mxPoint x="270" y="398.75" as="targetPoint" />
          </mxGeometry>
        </mxCell>
        <mxCell id="ZC2ZCOioa6piEP0aAPeQ-54" value="" style="endArrow=classic;html=1;" edge="1" parent="1">
          <mxGeometry width="50" height="50" relative="1" as="geometry">
            <mxPoint x="135" y="449" as="sourcePoint" />
            <mxPoint x="185" y="449" as="targetPoint" />
            <Array as="points">
              <mxPoint x="145" y="449" />
            </Array>
          </mxGeometry>
        </mxCell>
        <mxCell id="ZC2ZCOioa6piEP0aAPeQ-55" value="" style="endArrow=classic;html=1;" edge="1" parent="1">
          <mxGeometry width="50" height="50" relative="1" as="geometry">
            <mxPoint x="320" y="348.25" as="sourcePoint" />
            <mxPoint x="520" y="348.25" as="targetPoint" />
          </mxGeometry>
        </mxCell>
        <mxCell id="ZC2ZCOioa6piEP0aAPeQ-56" value="binds" style="text;html=1;strokeColor=none;fillColor=none;align=center;verticalAlign=middle;whiteSpace=wrap;rounded=0;" vertex="1" parent="1">
          <mxGeometry x="393.75" y="350" width="40" height="20" as="geometry" />
        </mxCell>
        <mxCell id="ZC2ZCOioa6piEP0aAPeQ-57" value="Index&lt;sup&gt;1&lt;/sup&gt;-A (seal impression)" style="text;html=1;strokeColor=none;fillColor=none;align=center;verticalAlign=middle;whiteSpace=wrap;rounded=0;" vertex="1" parent="1">
          <mxGeometry x="80" y="388.75" width="150" height="20" as="geometry" />
        </mxCell>
        <mxCell id="ZC2ZCOioa6piEP0aAPeQ-58" value="Prototype-A (Count)" style="text;html=1;strokeColor=none;fillColor=none;align=center;verticalAlign=middle;whiteSpace=wrap;rounded=0;" vertex="1" parent="1">
          <mxGeometry x="20" y="440" width="110" height="20" as="geometry" />
        </mxCell>
        <mxCell id="ZC2ZCOioa6piEP0aAPeQ-60" value="attaches to" style="text;html=1;strokeColor=none;fillColor=none;align=center;verticalAlign=middle;whiteSpace=wrap;rounded=0;" vertex="1" parent="1">
          <mxGeometry x="225" y="408.75" width="76.5" height="20" as="geometry" />
        </mxCell>
        <mxCell id="ZC2ZCOioa6piEP0aAPeQ-61" value="bites" style="text;html=1;strokeColor=none;fillColor=none;align=center;verticalAlign=middle;whiteSpace=wrap;rounded=0;" vertex="1" parent="1">
          <mxGeometry x="140" y="458.75" width="40" height="20" as="geometry" />
        </mxCell>
        <mxCell id="ZC2ZCOioa6piEP0aAPeQ-63" value="engages" style="text;html=1;strokeColor=none;fillColor=none;align=center;verticalAlign=middle;whiteSpace=wrap;rounded=0;" vertex="1" parent="1">
          <mxGeometry x="130" y="208.75" width="40" height="20" as="geometry" />
        </mxCell>
        <mxCell id="ZC2ZCOioa6piEP0aAPeQ-64" value="makes" style="text;html=1;strokeColor=none;fillColor=none;align=center;verticalAlign=middle;whiteSpace=wrap;rounded=0;" vertex="1" parent="1">
          <mxGeometry x="232.5" y="160" width="40" height="20" as="geometry" />
        </mxCell>
        <mxCell id="ZC2ZCOioa6piEP0aAPeQ-66" value="affects" style="text;html=1;strokeColor=none;fillColor=none;align=center;verticalAlign=middle;whiteSpace=wrap;rounded=0;" vertex="1" parent="1">
          <mxGeometry x="373.75" y="100" width="40" height="20" as="geometry" />
        </mxCell>
        <mxCell id="ZC2ZCOioa6piEP0aAPeQ-67" value="" style="shape=curlyBracket;whiteSpace=wrap;html=1;rounded=1;rotation=90;" vertex="1" parent="1">
          <mxGeometry x="916.25" y="303.13" width="20" height="220" as="geometry" />
        </mxCell>
        <mxCell id="ZC2ZCOioa6piEP0aAPeQ-68" value="Index&lt;span style=&quot;font-size: 10px&quot;&gt;&lt;sup&gt;5&lt;/sup&gt;&lt;/span&gt;-A (authenticated document)" style="text;html=1;strokeColor=none;fillColor=none;align=center;verticalAlign=middle;whiteSpace=wrap;rounded=0;" vertex="1" parent="1">
          <mxGeometry x="683.75" y="433.13" width="190" height="20" as="geometry" />
        </mxCell>
        <mxCell id="ZC2ZCOioa6piEP0aAPeQ-146" style="edgeStyle=orthogonalEdgeStyle;rounded=0;orthogonalLoop=1;jettySize=auto;html=1;dashed=1;" edge="1" parent="1" source="ZC2ZCOioa6piEP0aAPeQ-69">
          <mxGeometry relative="1" as="geometry">
            <mxPoint x="676" y="820" as="targetPoint" />
            <Array as="points">
              <mxPoint x="1040" y="833" />
              <mxPoint x="676" y="833" />
            </Array>
          </mxGeometry>
        </mxCell>
        <mxCell id="ZC2ZCOioa6piEP0aAPeQ-69" value="Prototype-P (sigillant)" style="text;html=1;strokeColor=none;fillColor=none;align=center;verticalAlign=middle;whiteSpace=wrap;rounded=0;" vertex="1" parent="1">
          <mxGeometry x="1000" y="433.13" width="140" height="20" as="geometry" />
        </mxCell>
        <mxCell id="ZC2ZCOioa6piEP0aAPeQ-70" value="" style="shape=curlyBracket;whiteSpace=wrap;html=1;rounded=1;rotation=90;" vertex="1" parent="1">
          <mxGeometry x="803.75" y="403.13" width="20" height="120" as="geometry" />
        </mxCell>
        <mxCell id="ZC2ZCOioa6piEP0aAPeQ-71" value="Index&lt;sup&gt;7&lt;/sup&gt;-P (document)" style="text;html=1;strokeColor=none;fillColor=none;align=center;verticalAlign=middle;whiteSpace=wrap;rounded=0;" vertex="1" parent="1">
          <mxGeometry x="843.75" y="483.13" width="120" height="20" as="geometry" />
        </mxCell>
        <mxCell id="ZC2ZCOioa6piEP0aAPeQ-72" value="" style="shape=curlyBracket;whiteSpace=wrap;html=1;rounded=1;rotation=90;" vertex="1" parent="1">
          <mxGeometry x="713.75" y="453.13" width="20" height="120" as="geometry" />
        </mxCell>
        <mxCell id="ZC2ZCOioa6piEP0aAPeQ-73" value="Index&lt;sup&gt;6&lt;/sup&gt;-P (document)" style="text;html=1;strokeColor=none;fillColor=none;align=center;verticalAlign=middle;whiteSpace=wrap;rounded=0;" vertex="1" parent="1">
          <mxGeometry x="758.75" y="531.88" width="81.25" height="20" as="geometry" />
        </mxCell>
        <mxCell id="ZC2ZCOioa6piEP0aAPeQ-74" value="" style="endArrow=classic;html=1;" edge="1" parent="1">
          <mxGeometry width="50" height="50" relative="1" as="geometry">
            <mxPoint x="793.75" y="493.13" as="sourcePoint" />
            <mxPoint x="833.75" y="493.13" as="targetPoint" />
          </mxGeometry>
        </mxCell>
        <mxCell id="ZC2ZCOioa6piEP0aAPeQ-75" value="" style="endArrow=classic;html=1;" edge="1" parent="1">
          <mxGeometry width="50" height="50" relative="1" as="geometry">
            <mxPoint x="698.75" y="541.38" as="sourcePoint" />
            <mxPoint x="748.75" y="541.38" as="targetPoint" />
            <Array as="points">
              <mxPoint x="708.75" y="541.38" />
            </Array>
          </mxGeometry>
        </mxCell>
        <mxCell id="ZC2ZCOioa6piEP0aAPeQ-76" value="" style="endArrow=classic;html=1;" edge="1" parent="1">
          <mxGeometry width="50" height="50" relative="1" as="geometry">
            <mxPoint x="883.75" y="443.13" as="sourcePoint" />
            <mxPoint x="1000" y="443.13" as="targetPoint" />
          </mxGeometry>
        </mxCell>
        <mxCell id="ZC2ZCOioa6piEP0aAPeQ-77" value="binds" style="text;html=1;strokeColor=none;fillColor=none;align=center;verticalAlign=middle;whiteSpace=wrap;rounded=0;" vertex="1" parent="1">
          <mxGeometry x="916.25" y="448.13" width="40" height="20" as="geometry" />
        </mxCell>
        <mxCell id="ZC2ZCOioa6piEP0aAPeQ-78" value="Index&lt;sup&gt;4&lt;/sup&gt;-A (seal impression)" style="text;html=1;strokeColor=none;fillColor=none;align=center;verticalAlign=middle;whiteSpace=wrap;rounded=0;" vertex="1" parent="1">
          <mxGeometry x="643.75" y="483.13" width="150" height="20" as="geometry" />
        </mxCell>
        <mxCell id="ZC2ZCOioa6piEP0aAPeQ-79" value="Index&lt;sup&gt;3&lt;/sup&gt;-A (wax)" style="text;html=1;strokeColor=none;fillColor=none;align=center;verticalAlign=middle;whiteSpace=wrap;rounded=0;" vertex="1" parent="1">
          <mxGeometry x="560" y="531.88" width="133.75" height="20" as="geometry" />
        </mxCell>
        <mxCell id="ZC2ZCOioa6piEP0aAPeQ-80" value="authenticates" style="text;html=1;strokeColor=none;fillColor=none;align=center;verticalAlign=middle;whiteSpace=wrap;rounded=0;" vertex="1" parent="1">
          <mxGeometry x="788.75" y="503.13" width="76.5" height="20" as="geometry" />
        </mxCell>
        <mxCell id="ZC2ZCOioa6piEP0aAPeQ-81" value="attaches to&amp;nbsp;" style="text;html=1;strokeColor=none;fillColor=none;align=center;verticalAlign=middle;whiteSpace=wrap;rounded=0;" vertex="1" parent="1">
          <mxGeometry x="688.75" y="553.13" width="70" height="20" as="geometry" />
        </mxCell>
        <mxCell id="ZC2ZCOioa6piEP0aAPeQ-84" value="" style="shape=curlyBracket;whiteSpace=wrap;html=1;rounded=1;rotation=90;" vertex="1" parent="1">
          <mxGeometry x="598.75" y="643.13" width="20" height="120" as="geometry" />
        </mxCell>
        <mxCell id="ZC2ZCOioa6piEP0aAPeQ-86" value="" style="shape=curlyBracket;whiteSpace=wrap;html=1;rounded=1;rotation=90;" vertex="1" parent="1">
          <mxGeometry x="795.94" y="645.32" width="16.88" height="110" as="geometry" />
        </mxCell>
        <mxCell id="ZC2ZCOioa6piEP0aAPeQ-91" style="edgeStyle=orthogonalEdgeStyle;rounded=0;orthogonalLoop=1;jettySize=auto;html=1;exitX=0.5;exitY=1;exitDx=0;exitDy=0;" edge="1" parent="1">
          <mxGeometry relative="1" as="geometry">
            <mxPoint x="616.25" y="706.88" as="sourcePoint" />
            <mxPoint x="616.25" y="706.88" as="targetPoint" />
          </mxGeometry>
        </mxCell>
        <mxCell id="ZC2ZCOioa6piEP0aAPeQ-92" value="Index&lt;sup&gt;2&lt;/sup&gt;-P (attachment)" style="text;html=1;strokeColor=none;fillColor=none;align=center;verticalAlign=middle;whiteSpace=wrap;rounded=0;" vertex="1" parent="1">
          <mxGeometry x="831.25" y="723.13" width="60" height="20" as="geometry" />
        </mxCell>
        <mxCell id="ZC2ZCOioa6piEP0aAPeQ-93" value="Index&lt;span style=&quot;font-size: 10px&quot;&gt;&lt;sup&gt;1&lt;/sup&gt;&lt;/span&gt;-A (wax)" style="text;html=1;strokeColor=none;fillColor=none;align=center;verticalAlign=middle;whiteSpace=wrap;rounded=0;" vertex="1" parent="1">
          <mxGeometry x="711.88" y="724.38" width="60" height="20" as="geometry" />
        </mxCell>
        <mxCell id="ZC2ZCOioa6piEP0aAPeQ-94" value="" style="endArrow=classic;html=1;" edge="1" parent="1">
          <mxGeometry width="50" height="50" relative="1" as="geometry">
            <mxPoint x="771.88" y="733.88" as="sourcePoint" />
            <mxPoint x="821.88" y="733.88" as="targetPoint" />
          </mxGeometry>
        </mxCell>
        <mxCell id="ZC2ZCOioa6piEP0aAPeQ-96" value="envelopes" style="text;html=1;strokeColor=none;fillColor=none;align=center;verticalAlign=middle;whiteSpace=wrap;rounded=0;" vertex="1" parent="1">
          <mxGeometry x="771.88" y="743.13" width="40" height="20" as="geometry" />
        </mxCell>
        <mxCell id="ZC2ZCOioa6piEP0aAPeQ-145" style="edgeStyle=orthogonalEdgeStyle;rounded=0;orthogonalLoop=1;jettySize=auto;html=1;entryX=0.25;entryY=1;entryDx=0;entryDy=0;dashed=1;" edge="1" parent="1" target="ZC2ZCOioa6piEP0aAPeQ-135">
          <mxGeometry relative="1" as="geometry">
            <mxPoint x="534" y="710" as="sourcePoint" />
          </mxGeometry>
        </mxCell>
        <mxCell id="ZC2ZCOioa6piEP0aAPeQ-97" value="Prototype&lt;sup&gt;2&lt;/sup&gt;-A (sigillant)" style="text;html=1;strokeColor=none;fillColor=none;align=center;verticalAlign=middle;whiteSpace=wrap;rounded=0;" vertex="1" parent="1">
          <mxGeometry x="490" y="724.38" width="87.5" height="20" as="geometry" />
        </mxCell>
        <mxCell id="ZC2ZCOioa6piEP0aAPeQ-98" value="Index&lt;sup&gt;3&lt;/sup&gt;-P (seal matrix)" style="text;html=1;strokeColor=none;fillColor=none;align=center;verticalAlign=middle;whiteSpace=wrap;rounded=0;" vertex="1" parent="1">
          <mxGeometry x="642.5" y="720" width="66.25" height="24.38" as="geometry" />
        </mxCell>
        <mxCell id="ZC2ZCOioa6piEP0aAPeQ-99" value="" style="endArrow=classic;html=1;" edge="1" parent="1">
          <mxGeometry width="50" height="50" relative="1" as="geometry">
            <mxPoint x="586.25" y="733.88" as="sourcePoint" />
            <mxPoint x="628.75" y="733.88" as="targetPoint" />
          </mxGeometry>
        </mxCell>
        <mxCell id="ZC2ZCOioa6piEP0aAPeQ-100" value="manipulates" style="text;html=1;strokeColor=none;fillColor=none;align=center;verticalAlign=middle;whiteSpace=wrap;rounded=0;" vertex="1" parent="1">
          <mxGeometry x="588.75" y="743.13" width="40" height="20" as="geometry" />
        </mxCell>
        <mxCell id="ZC2ZCOioa6piEP0aAPeQ-106" value="" style="shape=curlyBracket;whiteSpace=wrap;html=1;rounded=1;rotation=90;" vertex="1" parent="1">
          <mxGeometry x="601.25" y="514.38" width="20" height="120" as="geometry" />
        </mxCell>
        <mxCell id="ZC2ZCOioa6piEP0aAPeQ-107" value="Index&lt;sup&gt;2&lt;/sup&gt;-A (seal matrix)" style="text;html=1;strokeColor=none;fillColor=none;align=center;verticalAlign=middle;whiteSpace=wrap;rounded=0;" vertex="1" parent="1">
          <mxGeometry x="577.5" y="653.13" width="80" height="20" as="geometry" />
        </mxCell>
        <mxCell id="ZC2ZCOioa6piEP0aAPeQ-109" value="" style="endArrow=classic;html=1;" edge="1" parent="1">
          <mxGeometry width="50" height="50" relative="1" as="geometry">
            <mxPoint x="680" y="662.63" as="sourcePoint" />
            <mxPoint x="730" y="662.63" as="targetPoint" />
          </mxGeometry>
        </mxCell>
        <mxCell id="ZC2ZCOioa6piEP0aAPeQ-110" value="impresses" style="text;html=1;strokeColor=none;fillColor=none;align=center;verticalAlign=middle;whiteSpace=wrap;rounded=0;" vertex="1" parent="1">
          <mxGeometry x="676.25" y="673.13" width="40" height="20" as="geometry" />
        </mxCell>
        <mxCell id="ZC2ZCOioa6piEP0aAPeQ-113" value="" style="shape=curlyBracket;whiteSpace=wrap;html=1;rounded=1;rotation=90;" vertex="1" parent="1">
          <mxGeometry x="741.25" y="713.13" width="20" height="120" as="geometry" />
        </mxCell>
        <mxCell id="ZC2ZCOioa6piEP0aAPeQ-132" style="edgeStyle=orthogonalEdgeStyle;rounded=0;orthogonalLoop=1;jettySize=auto;html=1;dashed=1;" edge="1" parent="1" source="ZC2ZCOioa6piEP0aAPeQ-126">
          <mxGeometry relative="1" as="geometry">
            <mxPoint x="527.5" y="753.13" as="targetPoint" />
          </mxGeometry>
        </mxCell>
        <mxCell id="ZC2ZCOioa6piEP0aAPeQ-126" value="Prototype&lt;sup&gt;1&lt;/sup&gt;-A (sigillant)" style="text;html=1;strokeColor=none;fillColor=none;align=center;verticalAlign=middle;whiteSpace=wrap;rounded=0;" vertex="1" parent="1">
          <mxGeometry x="635" y="793.13" width="81.25" height="20" as="geometry" />
        </mxCell>
        <mxCell id="ZC2ZCOioa6piEP0aAPeQ-127" value="" style="endArrow=classic;html=1;" edge="1" parent="1">
          <mxGeometry width="50" height="50" relative="1" as="geometry">
            <mxPoint x="718.75" y="802.13" as="sourcePoint" />
            <mxPoint x="778.75" y="802.13" as="targetPoint" />
          </mxGeometry>
        </mxCell>
        <mxCell id="ZC2ZCOioa6piEP0aAPeQ-128" value="warms" style="text;html=1;strokeColor=none;fillColor=none;align=center;verticalAlign=middle;whiteSpace=wrap;rounded=0;" vertex="1" parent="1">
          <mxGeometry x="731.25" y="813.13" width="40" height="20" as="geometry" />
        </mxCell>
        <mxCell id="ZC2ZCOioa6piEP0aAPeQ-133" value="Index&lt;sup&gt;1&lt;/sup&gt;-P (wax)" style="text;html=1;strokeColor=none;fillColor=none;align=center;verticalAlign=middle;whiteSpace=wrap;rounded=0;" vertex="1" parent="1">
          <mxGeometry x="781.88" y="793.13" width="49.37" height="20" as="geometry" />
        </mxCell>
        <mxCell id="ZC2ZCOioa6piEP0aAPeQ-134" value="" style="shape=curlyBracket;whiteSpace=wrap;html=1;rounded=1;rotation=90;" vertex="1" parent="1">
          <mxGeometry x="688.75" y="573.13" width="20" height="120" as="geometry" />
        </mxCell>
        <mxCell id="ZC2ZCOioa6piEP0aAPeQ-135" value="Prototype&lt;sup&gt;3&lt;/sup&gt;-A (sigillant)" style="text;html=1;strokeColor=none;fillColor=none;align=center;verticalAlign=middle;whiteSpace=wrap;rounded=0;" vertex="1" parent="1">
          <mxGeometry x="433.75" y="590" width="130" height="20" as="geometry" />
        </mxCell>
        <mxCell id="ZC2ZCOioa6piEP0aAPeQ-137" value="" style="endArrow=classic;html=1;" edge="1" parent="1">
          <mxGeometry width="50" height="50" relative="1" as="geometry">
            <mxPoint x="580" y="600" as="sourcePoint" />
            <mxPoint x="630" y="600" as="targetPoint" />
          </mxGeometry>
        </mxCell>
        <mxCell id="ZC2ZCOioa6piEP0aAPeQ-138" value="Index&lt;sup&gt;5&lt;/sup&gt;-P (wax/attachment)" style="text;html=1;strokeColor=none;fillColor=none;align=center;verticalAlign=middle;whiteSpace=wrap;rounded=0;" vertex="1" parent="1">
          <mxGeometry x="657.5" y="590" width="66.25" height="20" as="geometry" />
        </mxCell>
        <mxCell id="ZC2ZCOioa6piEP0aAPeQ-139" value="manipulates" style="text;html=1;strokeColor=none;fillColor=none;align=center;verticalAlign=middle;whiteSpace=wrap;rounded=0;" vertex="1" parent="1">
          <mxGeometry x="577.5" y="610" width="40" height="20" as="geometry" />
        </mxCell>
        <mxCell id="ZC2ZCOioa6piEP0aAPeQ-140" value="Index&lt;sup&gt;4&lt;/sup&gt;-P (wax/attachment)" style="text;html=1;strokeColor=none;fillColor=none;align=center;verticalAlign=middle;whiteSpace=wrap;rounded=0;" vertex="1" parent="1">
          <mxGeometry x="771.88" y="653.13" width="40" height="20" as="geometry" />
        </mxCell>
        <mxCell id="ZC2ZCOioa6piEP0aAPeQ-142" style="edgeStyle=orthogonalEdgeStyle;shape=arrow;rounded=0;orthogonalLoop=1;jettySize=auto;html=1;exitX=0.5;exitY=1;exitDx=0;exitDy=0;" edge="1" parent="1" source="ZC2ZCOioa6piEP0aAPeQ-139" target="ZC2ZCOioa6piEP0aAPeQ-139">
          <mxGeometry relative="1" as="geometry" />
        </mxCell>
      </root>
    </mxGraphModel>
  </diagram>
</mxfile>
